<svg width="512" height="512" viewBox="0 0 512 512" fill="none" xmlns="http://www.w3.org/2000/svg">
  <defs>
    <linearGradient id="bg" x1="74" y1="53" x2="438" y2="459" gradientUnits="userSpaceOnUse">
      <stop stop-color="#052E1B"/>
      <stop offset="0.52" stop-color="#063F25"/>
      <stop offset="1" stop-color="#0B5E36"/>
    </linearGradient>
    <linearGradient id="field" x1="154" y1="170" x2="359" y2="381" gradientUnits="userSpaceOnUse">
      <stop stop-color="#24D66D"/>
      <stop offset="1" stop-color="#098D45"/>
    </linearGradient>
  </defs>

  <!-- App tile -->
  <rect x="32" y="32" width="448" height="448" rx="104" fill="url(#bg)"/>

  <!-- Shield / field base -->
  <path d="M128 165 L256 102 L384 165 L384 298 C384 339 360 376 326 395 L256 432 L186 395 C152 376 128 339 128 298 V165Z" fill="url(#field)" opacity="0.98"/>

  <!-- Subtle darker right half for match duality -->
  <path d="M256 102 L384 165 L384 298 C384 339 360 376 326 395 L256 432 V102Z" fill="#04361F" opacity="0.55"/>

  <!-- Stylized M / teams meeting -->
  <path d="M128 165 L128 112 C128 94 148 83 163 93 L256 154 L349 93 C364 83 384 94 384 112 V165" stroke="white" stroke-width="34" stroke-linecap="round" stroke-linejoin="round"/>

  <!-- Pitch center line -->
  <path d="M256 154 V432" stroke="white" stroke-width="18" stroke-linecap="round"/>

  <!-- Center circle -->
  <circle cx="256" cy="276" r="56" stroke="white" stroke-width="18"/>

  <!-- Connection nodes / matchmaking -->
  <path d="M135 276 H200" stroke="white" stroke-width="18" stroke-linecap="round"/>
  <path d="M312 276 H377" stroke="white" stroke-width="18" stroke-linecap="round"/>
  <circle cx="116" cy="276" r="28" fill="white"/>
  <circle cx="396" cy="276" r="28" fill="white"/>

  <!-- Bottom shield split -->
  <path d="M128 298 C128 339 152 376 186 395 L256 432 L326 395 C360 376 384 339 384 298" stroke="white" stroke-opacity="0.38" stroke-width="4"/>
</svg>